<?xml version="1.0" standalone="no"?>
<!DOCTYPE svg PUBLIC "-//W3C//DTD SVG 20010904//EN"
 "http://www.w3.org/TR/2001/REC-SVG-20010904/DTD/svg10.dtd">
<svg version="1.0" xmlns="http://www.w3.org/2000/svg"
 width="260.000000pt" height="260.000000pt" viewBox="0 0 260.000000 260.000000"
 preserveAspectRatio="xMidYMid meet">
<metadata>
Created by potrace 1.11, written by Peter Selinger 2001-2013
</metadata>
<g transform="translate(0.000000,260.000000) scale(0.100000,-0.100000)"
fill="#000000" stroke="none">
<path d="M1595 2311 c-98 -24 -182 -113 -224 -239 -22 -64 -40 -238 -23 -213
8 11 12 2 17 -35 10 -82 24 -123 56 -159 95 -108 300 -43 379 119 63 130 33
360 -58 452 -36 37 -21 31 27 -11 23 -20 24 -20 13 0 -18 34 -67 75 -103 85
-38 11 -41 11 -84 1z m-110 -113 c-48 -54 -63 -69 -45 -43 18 25 73 85 78 85
2 0 -13 -19 -33 -42z m-108 -220 c-3 -7 -5 -2 -5 12 0 14 2 19 5 13 2 -7 2
-19 0 -25z m-10 -65 c-3 -10 -5 -2 -5 17 0 19 2 27 5 18 2 -10 2 -26 0 -35z"/>
<path d="M820 2225 c-101 -46 -151 -150 -131 -275 l9 -55 2 70 3 70 7 -85 c9
-102 44 -238 74 -282 51 -76 169 -122 253 -99 53 14 98 52 126 105 30 57 27
176 -7 315 -14 57 -23 107 -20 113 11 18 -46 77 -101 103 -69 34 -164 43 -215
20z m108 -22 c-10 -2 -28 -2 -40 0 -13 2 -5 4 17 4 22 1 32 -1 23 -4z m182
-78 c13 -14 21 -25 18 -25 -2 0 -15 11 -28 25 -13 14 -21 25 -18 25 2 0 15
-11 28 -25z"/>
<path d="M1245 2000 c-3 -5 -1 -27 4 -48 6 -21 11 -76 12 -122 3 -110 -24
-185 -90 -252 -83 -83 -199 -98 -334 -42 -79 33 -107 60 -153 147 -26 49 -39
65 -45 56 -5 -9 -2 -22 7 -34 34 -47 132 -195 136 -207 4 -10 8 -11 20 0 12
10 24 9 59 -4 24 -8 86 -19 138 -24 l94 -8 64 40 c42 27 63 46 63 59 0 26 46
116 65 126 13 7 13 20 5 83 -5 41 -10 109 -10 151 0 58 -4 78 -15 82 -8 4 -17
2 -20 -3z"/>
<path d="M1909 1940 c-8 -90 -32 -176 -62 -221 -33 -49 -134 -126 -194 -149
-37 -14 -78 -20 -131 -20 -81 0 -98 6 -153 57 l-27 25 7 -33 c6 -30 13 -35
100 -70 76 -30 96 -35 107 -25 7 7 31 16 54 20 23 3 68 20 101 37 33 16 63 28
67 25 12 -7 26 6 52 49 13 22 43 70 68 107 34 51 42 71 34 81 -6 7 -12 53 -14
103 l-3 89 -6 -75z"/>
<path d="M2105 1860 c-102 -50 -191 -158 -250 -300 -28 -70 -34 -97 -33 -150
1 -59 2 -61 8 -25 l7 40 2 -37 c2 -57 40 -149 78 -187 32 -32 36 -33 96 -29
78 5 160 44 226 108 55 53 85 128 97 244 9 83 -20 179 -77 261 -39 57 -40 59
-9 30 l32 -30 -16 32 c-32 64 -88 79 -161 43z m-135 -164 c0 -2 -8 -10 -17
-17 -16 -13 -17 -12 -4 4 13 16 21 21 21 13z m-57 -91 c-9 -19 -18 -33 -21
-31 -4 5 26 66 33 66 3 0 -3 -16 -12 -35z m-42 -92 c-12 -20 -14 -14 -5 12 4
9 9 14 11 11 3 -2 0 -13 -6 -23z"/>
<path d="M1352 1795 c0 -16 2 -22 5 -12 2 9 2 23 0 30 -3 6 -5 -1 -5 -18z"/>
<path d="M387 1716 c-51 -19 -81 -48 -108 -105 -18 -37 -23 -67 -25 -156 -1
-77 0 -92 4 -50 l7 60 7 -90 c23 -299 207 -465 375 -337 73 55 110 206 83 335
-18 88 -83 209 -137 256 -25 23 -43 41 -39 41 4 0 32 -24 63 -52 58 -55 61
-51 10 15 -59 76 -162 112 -240 83z m-100 -178 c-3 -8 -6 -5 -6 6 -1 11 2 17
5 13 3 -3 4 -12 1 -19z m-10 -55 c-3 -10 -5 -4 -5 12 0 17 2 24 5 18 2 -7 2
-21 0 -30z"/>
<path d="M2410 1531 c0 -52 -29 -151 -63 -214 -38 -73 -91 -119 -187 -166
-157 -75 -301 -47 -361 71 -19 37 -43 57 -56 45 -7 -8 41 -91 84 -145 24 -29
40 -41 52 -37 10 3 42 1 72 -5 67 -13 139 0 225 41 108 51 181 130 219 239 23
64 38 181 25 194 -7 7 -10 -1 -10 -23z"/>
<path d="M1263 1496 c-186 -60 -450 -398 -554 -706 -23 -70 -32 -118 -35 -180
-2 -60 -1 -75 5 -50 l8 35 2 -30 c4 -85 43 -150 115 -188 37 -20 56 -22 191
-22 127 0 173 5 300 30 141 28 162 30 345 27 214 -3 238 1 311 59 68 54 86
138 53 250 -26 87 -52 128 -133 214 -42 44 -104 118 -137 165 -94 134 -109
160 -82 144 7 -4 8 -3 4 5 -4 6 -11 9 -16 6 -4 -3 -31 24 -59 59 -28 36 -68
79 -89 96 -32 27 -33 29 -5 11 18 -12 60 -52 94 -89 34 -37 51 -51 38 -32 -39
59 -142 161 -182 182 -50 25 -122 31 -174 14z m90 -23 c-7 -2 -19 -2 -25 0 -7
3 -2 5 12 5 14 0 19 -2 13 -5z m-213 -86 c0 -1 -30 -32 -67 -67 l-68 -65 65
68 c60 62 70 72 70 64z m-140 -151 c0 -2 -8 -10 -17 -17 -16 -13 -17 -12 -4 4
13 16 21 21 21 13z m-160 -236 c-6 -11 -13 -20 -16 -20 -2 0 0 9 6 20 6 11 13
20 16 20 2 0 0 -9 -6 -20z m-64 -127 c-8 -15 -15 -25 -16 -21 0 12 23 58 27
54 3 -2 -2 -17 -11 -33z m-69 -195 c-3 -8 -6 -5 -6 6 -1 11 2 17 5 13 3 -3 4
-12 1 -19z m-10 -50 c-3 -7 -5 -2 -5 12 0 14 2 19 5 13 2 -7 2 -19 0 -25z"/>
<path d="M816 1235 c-16 -150 -51 -210 -151 -260 -38 -19 -91 -38 -116 -41
-64 -9 -145 17 -197 61 -23 20 -42 33 -42 28 0 -15 72 -80 109 -98 48 -24 136
-30 194 -12 26 8 55 13 65 10 14 -3 30 15 69 79 80 131 117 209 102 218 -6 5
-15 25 -19 46 -6 37 -7 35 -14 -31z"/>
<path d="M1782 1056 c39 -58 188 -215 162 -171 -9 17 -45 57 -79 90 -34 33
-74 76 -89 95 -17 23 -15 18 6 -14z"/>
<path d="M2097 595 c-21 -102 -79 -169 -193 -222 -56 -26 -65 -27 -184 -23
-206 7 -258 3 -410 -26 -124 -24 -170 -28 -315 -29 -166 0 -172 1 -230 28 -33
15 -67 35 -77 44 -10 9 -18 11 -18 5 0 -16 60 -63 107 -83 109 -47 273 -45
553 7 119 22 157 25 325 22 168 -3 196 -1 242 16 132 49 222 163 211 269 -3
32 -3 32 -11 -8z"/>
</g>
</svg>
